<?xml version="1.0" encoding="UTF-8" standalone="no"?>
<!DOCTYPE svg PUBLIC "-//W3C//DTD SVG 1.1//EN"
 "http://www.w3.org/Graphics/SVG/1.1/DTD/svg11.dtd">
<!-- Generated by graphviz version 2.40.1 (20161225.0304)
 -->
<!-- Title: G Pages: 1 -->
<svg width="445pt" height="912pt"
 viewBox="0.00 0.00 444.70 912.00" xmlns="http://www.w3.org/2000/svg" xmlns:xlink="http://www.w3.org/1999/xlink">
<g id="graph0" class="graph" transform="scale(1 1) rotate(0) translate(4 908)">
<title>G</title>
<polygon fill="#ffffff" stroke="transparent" points="-4,4 -4,-908 440.6955,-908 440.6955,4 -4,4"/>
<g id="clust1" class="cluster">
<title>cluster_Global</title>
<path fill="none" stroke="#c0c0c0" d="M20,-44C20,-44 416.6955,-44 416.6955,-44 422.6955,-44 428.6955,-50 428.6955,-56 428.6955,-56 428.6955,-884 428.6955,-884 428.6955,-890 422.6955,-896 416.6955,-896 416.6955,-896 20,-896 20,-896 14,-896 8,-890 8,-884 8,-884 8,-56 8,-56 8,-50 14,-44 20,-44"/>
<text text-anchor="middle" x="218.3478" y="-883.2" font-family="Times,serif" font-size="11.00" fill="#c0c0c0">Global</text>
</g>
<g id="clust2" class="cluster">
<title>cluster_\ktc</title>
<path fill="none" stroke="#c0c0c0" d="M28,-52C28,-52 408.6955,-52 408.6955,-52 414.6955,-52 420.6955,-58 420.6955,-64 420.6955,-64 420.6955,-856 420.6955,-856 420.6955,-862 414.6955,-868 408.6955,-868 408.6955,-868 28,-868 28,-868 22,-868 16,-862 16,-856 16,-856 16,-64 16,-64 16,-58 22,-52 28,-52"/>
<text text-anchor="middle" x="218.3478" y="-855.2" font-family="Times,serif" font-size="11.00" fill="#c0c0c0">ktc</text>
</g>
<g id="clust3" class="cluster">
<title>cluster_\ktc\a2</title>
<path fill="none" stroke="#c0c0c0" d="M36,-60C36,-60 400.6955,-60 400.6955,-60 406.6955,-60 412.6955,-66 412.6955,-72 412.6955,-72 412.6955,-828 412.6955,-828 412.6955,-834 406.6955,-840 400.6955,-840 400.6955,-840 36,-840 36,-840 30,-840 24,-834 24,-828 24,-828 24,-72 24,-72 24,-66 30,-60 36,-60"/>
<text text-anchor="middle" x="218.3478" y="-827.2" font-family="Times,serif" font-size="11.00" fill="#c0c0c0">a2</text>
</g>
<g id="clust4" class="cluster">
<title>cluster_\ktc\a2\Exception</title>
<path fill="none" stroke="#c0c0c0" d="M252.6955,-390C252.6955,-390 348.6955,-390 348.6955,-390 354.6955,-390 360.6955,-396 360.6955,-402 360.6955,-402 360.6955,-450 360.6955,-450 360.6955,-456 354.6955,-462 348.6955,-462 348.6955,-462 252.6955,-462 252.6955,-462 246.6955,-462 240.6955,-456 240.6955,-450 240.6955,-450 240.6955,-402 240.6955,-402 240.6955,-396 246.6955,-390 252.6955,-390"/>
<text text-anchor="middle" x="300.6955" y="-449.2" font-family="Times,serif" font-size="11.00" fill="#c0c0c0">Exception</text>
</g>
<g id="clust5" class="cluster">
<title>cluster_\ktc\a2\model</title>
<path fill="none" stroke="#c0c0c0" d="M59,-470C59,-470 392.6955,-470 392.6955,-470 398.6955,-470 404.6955,-476 404.6955,-482 404.6955,-482 404.6955,-800 404.6955,-800 404.6955,-806 398.6955,-812 392.6955,-812 392.6955,-812 59,-812 59,-812 53,-812 47,-806 47,-800 47,-800 47,-482 47,-482 47,-476 53,-470 59,-470"/>
<text text-anchor="middle" x="225.8478" y="-799.2" font-family="Times,serif" font-size="11.00" fill="#c0c0c0">model</text>
</g>
<g id="clust6" class="cluster">
<title>cluster_\ktc\a2\view</title>
<path fill="none" stroke="#c0c0c0" d="M277.6955,-310C277.6955,-310 323.6955,-310 323.6955,-310 329.6955,-310 335.6955,-316 335.6955,-322 335.6955,-322 335.6955,-370 335.6955,-370 335.6955,-376 329.6955,-382 323.6955,-382 323.6955,-382 277.6955,-382 277.6955,-382 271.6955,-382 265.6955,-376 265.6955,-370 265.6955,-370 265.6955,-322 265.6955,-322 265.6955,-316 271.6955,-310 277.6955,-310"/>
<text text-anchor="middle" x="300.6955" y="-369.2" font-family="Times,serif" font-size="11.00" fill="#c0c0c0">view</text>
</g>
<g id="clust7" class="cluster">
<title>cluster_\ktc\a2\controller</title>
<path fill="none" stroke="#c0c0c0" d="M44,-68C44,-68 375.6955,-68 375.6955,-68 381.6955,-68 387.6955,-74 387.6955,-80 387.6955,-80 387.6955,-290 387.6955,-290 387.6955,-296 381.6955,-302 375.6955,-302 375.6955,-302 44,-302 44,-302 38,-302 32,-296 32,-290 32,-290 32,-80 32,-80 32,-74 38,-68 44,-68"/>
<text text-anchor="middle" x="209.8478" y="-289.2" font-family="Times,serif" font-size="11.00" fill="#c0c0c0">controller</text>
</g>
<!-- \\ktc\\a2\\Exception\\BankException -->
<g id="node1" class="node">
<title>\\ktc\\a2\\Exception\\BankException</title>
<polygon fill="none" stroke="#000000" points="352.6955,-434 248.6955,-434 248.6955,-398 352.6955,-398 352.6955,-434"/>
<text text-anchor="middle" x="300.6955" y="-413.2" font-family="Courier,monospace" font-size="11.00" fill="#000000">BankException</text>
</g>
<!-- \\Exception -->
<g id="node15" class="node">
<title>\\Exception</title>
<ellipse fill="none" stroke="#000000" cx="82" cy="-18" rx="50.8918" ry="18"/>
<text text-anchor="middle" x="82" y="-14.3" font-family="Times,serif" font-size="14.00" fill="#c0c0c0">xception</text>
</g>
<!-- \\ktc\\a2\\Exception\\BankException&#45;&gt;\\Exception -->
<g id="edge1" class="edge">
<title>\\ktc\\a2\\Exception\\BankException&#45;&gt;\\Exception</title>
<path fill="none" stroke="#000000" d="M248.3735,-409.9464C232.3854,-405.6366 216.0474,-398.3343 204.6955,-386 105.3877,-278.0984 206.4435,-190.7518 132.6955,-64 127.7358,-55.4756 120.6645,-47.6441 113.3718,-40.952"/>
<polygon fill="none" stroke="#000000" points="115.3278,-38.0183 105.461,-34.1587 110.7674,-43.329 115.3278,-38.0183"/>
</g>
<!-- \\ktc\\a2\\model\\AccountCollectionModel -->
<g id="node2" class="node">
<title>\\ktc\\a2\\model\\AccountCollectionModel</title>
<polygon fill="none" stroke="#000000" points="383.1955,-784 218.1955,-784 218.1955,-748 383.1955,-748 383.1955,-784"/>
<text text-anchor="middle" x="300.6955" y="-763.2" font-family="Courier,monospace" font-size="11.00" fill="#000000">AccountCollectionModel</text>
</g>
<!-- \\ktc\\a2\\model\\Model -->
<g id="node3" class="node">
<title>\\ktc\\a2\\model\\Model</title>
<polygon fill="none" stroke="#000000" points="109,-649 55,-649 55,-613 109,-613 109,-649"/>
<text text-anchor="middle" x="82" y="-628.2" font-family="Courier,monospace" font-size="11.00" fill="#000000">Model</text>
</g>
<!-- \\ktc\\a2\\model\\AccountCollectionModel&#45;&gt;\\ktc\\a2\\model\\Model -->
<g id="edge2" class="edge">
<title>\\ktc\\a2\\model\\AccountCollectionModel&#45;&gt;\\ktc\\a2\\model\\Model</title>
<path fill="none" stroke="#000000" d="M224.2394,-747.9334C217.4697,-745.3145 210.8558,-742.3492 204.6955,-739 165.1012,-717.4735 127.4133,-681.0918 104.5043,-656.5705"/>
<polygon fill="none" stroke="#000000" points="106.9455,-654.0545 97.6019,-649.0597 101.7914,-658.791 106.9455,-654.0545"/>
</g>
<!-- \\ktc\\a2\\model\\TransactionCollectionModel -->
<g id="node4" class="node">
<title>\\ktc\\a2\\model\\TransactionCollectionModel</title>
<polygon fill="none" stroke="#000000" points="396.6955,-730 204.6955,-730 204.6955,-694 396.6955,-694 396.6955,-730"/>
<text text-anchor="middle" x="300.6955" y="-709.2" font-family="Courier,monospace" font-size="11.00" fill="#000000">TransactionCollectionModel</text>
</g>
<!-- \\ktc\\a2\\model\\TransactionCollectionModel&#45;&gt;\\ktc\\a2\\model\\Model -->
<g id="edge3" class="edge">
<title>\\ktc\\a2\\model\\TransactionCollectionModel&#45;&gt;\\ktc\\a2\\model\\Model</title>
<path fill="none" stroke="#000000" d="M232.1455,-693.993C222.8548,-691.1826 213.4957,-688.1565 204.6955,-685 175.1062,-674.387 142.5845,-659.9406 118.4619,-648.6605"/>
<polygon fill="none" stroke="#000000" points="119.8637,-645.4519 109.3261,-644.3521 116.8779,-651.7832 119.8637,-645.4519"/>
</g>
<!-- \\ktc\\a2\\model\\UserCollectionModel -->
<g id="node5" class="node">
<title>\\ktc\\a2\\model\\UserCollectionModel</title>
<polygon fill="none" stroke="#000000" points="373.1955,-676 228.1955,-676 228.1955,-640 373.1955,-640 373.1955,-676"/>
<text text-anchor="middle" x="300.6955" y="-655.2" font-family="Courier,monospace" font-size="11.00" fill="#000000">UserCollectionModel</text>
</g>
<!-- \\ktc\\a2\\model\\UserCollectionModel&#45;&gt;\\ktc\\a2\\model\\Model -->
<g id="edge4" class="edge">
<title>\\ktc\\a2\\model\\UserCollectionModel&#45;&gt;\\ktc\\a2\\model\\Model</title>
<path fill="none" stroke="#000000" d="M228.1768,-649.0469C191.6957,-644.543 149.0223,-639.2745 119.2339,-635.5969"/>
<polygon fill="none" stroke="#000000" points="119.6196,-632.118 109.2661,-634.3663 118.7619,-639.0653 119.6196,-632.118"/>
</g>
<!-- \\ktc\\a2\\model\\UserModel -->
<g id="node6" class="node">
<title>\\ktc\\a2\\model\\UserModel</title>
<polygon fill="none" stroke="#000000" points="339.1955,-622 262.1955,-622 262.1955,-586 339.1955,-586 339.1955,-622"/>
<text text-anchor="middle" x="300.6955" y="-601.2" font-family="Courier,monospace" font-size="11.00" fill="#000000">UserModel</text>
</g>
<!-- \\ktc\\a2\\model\\UserModel&#45;&gt;\\ktc\\a2\\model\\Model -->
<g id="edge7" class="edge">
<title>\\ktc\\a2\\model\\UserModel&#45;&gt;\\ktc\\a2\\model\\Model</title>
<path fill="none" stroke="#000000" d="M262.1006,-608.7649C221.8025,-613.7401 159.0371,-621.489 119.2484,-626.4013"/>
<polygon fill="none" stroke="#000000" points="118.6603,-622.9473 109.1646,-627.6463 119.5181,-629.8945 118.6603,-622.9473"/>
</g>
<!-- \\ktc\\a2\\model\\TransactionModel -->
<g id="node7" class="node">
<title>\\ktc\\a2\\model\\TransactionModel</title>
<polygon fill="none" stroke="#000000" points="363.1955,-568 238.1955,-568 238.1955,-532 363.1955,-532 363.1955,-568"/>
<text text-anchor="middle" x="300.6955" y="-547.2" font-family="Courier,monospace" font-size="11.00" fill="#000000">TransactionModel</text>
</g>
<!-- \\ktc\\a2\\model\\TransactionModel&#45;&gt;\\ktc\\a2\\model\\Model -->
<g id="edge10" class="edge">
<title>\\ktc\\a2\\model\\TransactionModel&#45;&gt;\\ktc\\a2\\model\\Model</title>
<path fill="none" stroke="#000000" d="M238.0658,-566.2416C226.8665,-569.5344 215.3699,-573.1713 204.6955,-577 175.1062,-587.613 142.5845,-602.0594 118.4619,-613.3395"/>
<polygon fill="none" stroke="#000000" points="116.8779,-610.2168 109.3261,-617.6479 119.8637,-616.5481 116.8779,-610.2168"/>
</g>
<!-- \\ktc\\a2\\model\\AccountModel -->
<g id="node8" class="node">
<title>\\ktc\\a2\\model\\AccountModel</title>
<polygon fill="none" stroke="#000000" points="349.6955,-514 251.6955,-514 251.6955,-478 349.6955,-478 349.6955,-514"/>
<text text-anchor="middle" x="300.6955" y="-493.2" font-family="Courier,monospace" font-size="11.00" fill="#000000">AccountModel</text>
</g>
<!-- \\ktc\\a2\\model\\AccountModel&#45;&gt;\\ktc\\a2\\model\\Model -->
<g id="edge11" class="edge">
<title>\\ktc\\a2\\model\\AccountModel&#45;&gt;\\ktc\\a2\\model\\Model</title>
<path fill="none" stroke="#000000" d="M251.6903,-505.2831C236.0912,-509.4002 219.1456,-515.1438 204.6955,-523 165.1012,-544.5265 127.4133,-580.9082 104.5043,-605.4295"/>
<polygon fill="none" stroke="#000000" points="101.7914,-603.209 97.6019,-612.9403 106.9455,-607.9455 101.7914,-603.209"/>
</g>
<!-- \\ktc\\a2\\view\\View -->
<g id="node9" class="node">
<title>\\ktc\\a2\\view\\View</title>
<polygon fill="none" stroke="#000000" points="327.6955,-354 273.6955,-354 273.6955,-318 327.6955,-318 327.6955,-354"/>
<text text-anchor="middle" x="300.6955" y="-333.2" font-family="Courier,monospace" font-size="11.00" fill="#000000">View</text>
</g>
<!-- \\ktc\\a2\\controller\\Controller -->
<g id="node10" class="node">
<title>\\ktc\\a2\\controller\\Controller</title>
<polygon fill="none" stroke="#000000" points="124,-193 40,-193 40,-157 124,-157 124,-193"/>
<text text-anchor="middle" x="82" y="-172.2" font-family="Courier,monospace" font-size="11.00" fill="#000000">Controller</text>
</g>
<!-- \\ktc\\a2\\controller\\AccountController -->
<g id="node11" class="node">
<title>\\ktc\\a2\\controller\\AccountController</title>
<polygon fill="none" stroke="#000000" points="366.1955,-274 235.1955,-274 235.1955,-238 366.1955,-238 366.1955,-274"/>
<text text-anchor="middle" x="300.6955" y="-253.2" font-family="Courier,monospace" font-size="11.00" fill="#000000">AccountController</text>
</g>
<!-- \\ktc\\a2\\controller\\AccountController&#45;&gt;\\ktc\\a2\\controller\\Controller -->
<g id="edge5" class="edge">
<title>\\ktc\\a2\\controller\\AccountController&#45;&gt;\\ktc\\a2\\controller\\Controller</title>
<path fill="none" stroke="#000000" d="M234.9815,-238.845C224.7671,-235.7977 214.3921,-232.4779 204.6955,-229 179.1059,-219.8216 151.3231,-207.7761 128.6765,-197.391"/>
<polygon fill="none" stroke="#000000" points="129.852,-194.0785 119.3066,-193.0552 126.9122,-200.4313 129.852,-194.0785"/>
</g>
<!-- \\ktc\\a2\\controller\\ProductController -->
<g id="node12" class="node">
<title>\\ktc\\a2\\controller\\TransactionController</title>
<polygon fill="none" stroke="#000000" points="379.6955,-220 221.6955,-220 221.6955,-184 379.6955,-184 379.6955,-220"/>
<text text-anchor="middle" x="300.6955" y="-199.2" font-family="Courier,monospace" font-size="11.00" fill="#000000">TransactionController</text>
</g>
<!-- \\ktc\\a2\\controller\\ProductController&#45;&gt;\\ktc\\a2\\controller\\Controller -->
<g id="edge6" class="edge">
<title>\\ktc\\a2\\controller\\TransactionController&#45;&gt;\\ktc\\a2\\controller\\Controller</title>
<path fill="none" stroke="#000000" d="M221.4322,-192.2142C192.4031,-188.6303 160.3065,-184.6677 134.233,-181.4487"/>
<polygon fill="none" stroke="#000000" points="134.543,-177.9604 124.1895,-180.2087 133.6852,-184.9077 134.543,-177.9604"/>
</g>
<!-- \\ktc\\a2\\controller\\HomeController -->
<g id="node13" class="node">
<title>\\ktc\\a2\\controller\\HomeController</title>
<polygon fill="none" stroke="#000000" points="356.1955,-166 245.1955,-166 245.1955,-130 356.1955,-130 356.1955,-166"/>
<text text-anchor="middle" x="300.6955" y="-145.2" font-family="Courier,monospace" font-size="11.00" fill="#000000">HomeController</text>
</g>
<!-- \\ktc\\a2\\controller\\HomeController&#45;&gt;\\ktc\\a2\\controller\\Controller -->
<g id="edge8" class="edge">
<title>\\ktc\\a2\\controller\\HomeController&#45;&gt;\\ktc\\a2\\controller\\Controller</title>
<path fill="none" stroke="#000000" d="M244.9435,-154.8831C210.8816,-159.0884 167.6017,-164.4317 134.2087,-168.5544"/>
<polygon fill="none" stroke="#000000" points="133.6797,-165.093 124.1839,-169.792 134.5374,-172.0403 133.6797,-165.093"/>
</g>
<!-- \\ktc\\a2\\controller\\UserController -->
<g id="node14" class="node">
<title>\\ktc\\a2\\controller\\UserController</title>
<polygon fill="none" stroke="#000000" points="356.1955,-112 245.1955,-112 245.1955,-76 356.1955,-76 356.1955,-112"/>
<text text-anchor="middle" x="300.6955" y="-91.2" font-family="Courier,monospace" font-size="11.00" fill="#000000">UserController</text>
</g>
<!-- \\ktc\\a2\\controller\\UserController&#45;&gt;\\ktc\\a2\\controller\\Controller -->
<g id="edge9" class="edge">
<title>\\ktc\\a2\\controller\\UserController&#45;&gt;\\ktc\\a2\\controller\\Controller</title>
<path fill="none" stroke="#000000" d="M245.1954,-108.1789C231.8186,-111.9884 217.6514,-116.353 204.6955,-121 179.1059,-130.1784 151.3231,-142.2239 128.6765,-152.609"/>
<polygon fill="none" stroke="#000000" points="126.9122,-149.5687 119.3066,-156.9448 129.852,-155.9215 126.9122,-149.5687"/>
</g>
</g>
</svg>
