<?xml version="1.0" encoding="UTF-8" standalone="no"?>
<!DOCTYPE svg PUBLIC "-//W3C//DTD SVG 1.1//EN"
 "http://www.w3.org/Graphics/SVG/1.1/DTD/svg11.dtd">
<!-- Generated by graphviz version 2.40.1 (20161225.0304)
 -->
<!-- Title: G Pages: 1 -->
<svg width="418pt" height="858pt"
 viewBox="0.00 0.00 417.70 858.00" xmlns="http://www.w3.org/2000/svg" xmlns:xlink="http://www.w3.org/1999/xlink">
<g id="graph0" class="graph" transform="scale(1 1) rotate(0) translate(4 854)">
<title>G</title>
<polygon fill="#ffffff" stroke="transparent" points="-4,4 -4,-854 413.6955,-854 413.6955,4 -4,4"/>
<g id="clust1" class="cluster">
<title>cluster_Global</title>
<path fill="none" stroke="#c0c0c0" d="M20,-44C20,-44 389.6955,-44 389.6955,-44 395.6955,-44 401.6955,-50 401.6955,-56 401.6955,-56 401.6955,-830 401.6955,-830 401.6955,-836 395.6955,-842 389.6955,-842 389.6955,-842 20,-842 20,-842 14,-842 8,-836 8,-830 8,-830 8,-56 8,-56 8,-50 14,-44 20,-44"/>
<text text-anchor="middle" x="204.8478" y="-829.2" font-family="Times,serif" font-size="11.00" fill="#c0c0c0">Global</text>
</g>
<g id="clust2" class="cluster">
<title>cluster_\ktc</title>
<path fill="none" stroke="#c0c0c0" d="M28,-52C28,-52 381.6955,-52 381.6955,-52 387.6955,-52 393.6955,-58 393.6955,-64 393.6955,-64 393.6955,-802 393.6955,-802 393.6955,-808 387.6955,-814 381.6955,-814 381.6955,-814 28,-814 28,-814 22,-814 16,-808 16,-802 16,-802 16,-64 16,-64 16,-58 22,-52 28,-52"/>
<text text-anchor="middle" x="204.8478" y="-801.2" font-family="Times,serif" font-size="11.00" fill="#c0c0c0">ktc</text>
</g>
<g id="clust3" class="cluster">
<title>cluster_\ktc\a2</title>
<path fill="none" stroke="#c0c0c0" d="M36,-60C36,-60 373.6955,-60 373.6955,-60 379.6955,-60 385.6955,-66 385.6955,-72 385.6955,-72 385.6955,-774 385.6955,-774 385.6955,-780 379.6955,-786 373.6955,-786 373.6955,-786 36,-786 36,-786 30,-786 24,-780 24,-774 24,-774 24,-72 24,-72 24,-66 30,-60 36,-60"/>
<text text-anchor="middle" x="204.8478" y="-773.2" font-family="Times,serif" font-size="11.00" fill="#c0c0c0">a2</text>
</g>
<g id="clust4" class="cluster">
<title>cluster_\ktc\a2\Exception</title>
<path fill="none" stroke="#c0c0c0" d="M235.6955,-148C235.6955,-148 338.6955,-148 338.6955,-148 344.6955,-148 350.6955,-154 350.6955,-160 350.6955,-160 350.6955,-208 350.6955,-208 350.6955,-214 344.6955,-220 338.6955,-220 338.6955,-220 235.6955,-220 235.6955,-220 229.6955,-220 223.6955,-214 223.6955,-208 223.6955,-208 223.6955,-160 223.6955,-160 223.6955,-154 229.6955,-148 235.6955,-148"/>
<text text-anchor="middle" x="287.1955" y="-207.2" font-family="Times,serif" font-size="11.00" fill="#c0c0c0">Exception</text>
</g>
<g id="clust5" class="cluster">
<title>cluster_\ktc\a2\model</title>
<path fill="none" stroke="#c0c0c0" d="M59,-470C59,-470 365.6955,-470 365.6955,-470 371.6955,-470 377.6955,-476 377.6955,-482 377.6955,-482 377.6955,-746 377.6955,-746 377.6955,-752 371.6955,-758 365.6955,-758 365.6955,-758 59,-758 59,-758 53,-758 47,-752 47,-746 47,-746 47,-482 47,-482 47,-476 53,-470 59,-470"/>
<text text-anchor="middle" x="212.3478" y="-745.2" font-family="Times,serif" font-size="11.00" fill="#c0c0c0">model</text>
</g>
<g id="clust6" class="cluster">
<title>cluster_\ktc\a2\controller</title>
<path fill="none" stroke="#c0c0c0" d="M44,-228C44,-228 348.6955,-228 348.6955,-228 354.6955,-228 360.6955,-234 360.6955,-240 360.6955,-240 360.6955,-450 360.6955,-450 360.6955,-456 354.6955,-462 348.6955,-462 348.6955,-462 44,-462 44,-462 38,-462 32,-456 32,-450 32,-450 32,-240 32,-240 32,-234 38,-228 44,-228"/>
<text text-anchor="middle" x="196.3478" y="-449.2" font-family="Times,serif" font-size="11.00" fill="#c0c0c0">controller</text>
</g>
<g id="clust7" class="cluster">
<title>cluster_\ktc\a2\view</title>
<path fill="none" stroke="#c0c0c0" d="M264.1955,-68C264.1955,-68 310.1955,-68 310.1955,-68 316.1955,-68 322.1955,-74 322.1955,-80 322.1955,-80 322.1955,-128 322.1955,-128 322.1955,-134 316.1955,-140 310.1955,-140 310.1955,-140 264.1955,-140 264.1955,-140 258.1955,-140 252.1955,-134 252.1955,-128 252.1955,-128 252.1955,-80 252.1955,-80 252.1955,-74 258.1955,-68 264.1955,-68"/>
<text text-anchor="middle" x="287.1955" y="-127.2" font-family="Times,serif" font-size="11.00" fill="#c0c0c0">view</text>
</g>
<!-- \\ktc\\a2\\Exception\\StoreException -->
<g id="node1" class="node">
<title>\\ktc\\a2\\Exception\\StoreException</title>
<polygon fill="none" stroke="#000000" points="342.6955,-192 231.6955,-192 231.6955,-156 342.6955,-156 342.6955,-192"/>
<text text-anchor="middle" x="287.1955" y="-171.2" font-family="Courier,monospace" font-size="11.00" fill="#000000">StoreException</text>
</g>
<!-- \\Exception -->
<g id="node14" class="node">
<title>\\Exception</title>
<ellipse fill="none" stroke="#000000" cx="82" cy="-18" rx="50.8918" ry="18"/>
<text text-anchor="middle" x="82" y="-14.3" font-family="Times,serif" font-size="14.00" fill="#c0c0c0">xception</text>
</g>
<!-- \\ktc\\a2\\Exception\\StoreException&#45;&gt;\\Exception -->
<g id="edge1" class="edge">
<title>\\ktc\\a2\\Exception\\StoreException&#45;&gt;\\Exception</title>
<path fill="none" stroke="#000000" d="M231.4104,-157.6213C222.14,-153.8162 212.8877,-149.2941 204.6955,-144 162.1663,-116.5159 123.2474,-71.762 101.1098,-43.6485"/>
<polygon fill="none" stroke="#000000" points="103.6843,-41.2567 94.7928,-35.4954 98.1508,-45.5441 103.6843,-41.2567"/>
</g>
<!-- \\ktc\\a2\\model\\SearchCollectionModel -->
<g id="node2" class="node">
<title>\\ktc\\a2\\model\\SearchCollectionModel</title>
<polygon fill="none" stroke="#000000" points="366.1955,-730 208.1955,-730 208.1955,-694 366.1955,-694 366.1955,-730"/>
<text text-anchor="middle" x="287.1955" y="-709.2" font-family="Courier,monospace" font-size="11.00" fill="#000000">SearchCollectionModel</text>
</g>
<!-- \\ktc\\a2\\model\\Model -->
<g id="node3" class="node">
<title>\\ktc\\a2\\model\\Model</title>
<polygon fill="none" stroke="#000000" points="109,-622 55,-622 55,-586 109,-586 109,-622"/>
<text text-anchor="middle" x="82" y="-601.2" font-family="Courier,monospace" font-size="11.00" fill="#000000">Model</text>
</g>
<!-- \\ktc\\a2\\model\\SearchCollectionModel&#45;&gt;\\ktc\\a2\\model\\Model -->
<g id="edge2" class="edge">
<title>\\ktc\\a2\\model\\SearchCollectionModel&#45;&gt;\\ktc\\a2\\model\\Model</title>
<path fill="none" stroke="#000000" d="M225.6492,-693.8877C218.4719,-691.1824 211.3452,-688.2113 204.6955,-685 171.9423,-669.1829 137.6356,-645.8769 113.6534,-628.3202"/>
<polygon fill="none" stroke="#000000" points="115.4256,-625.2773 105.307,-622.1366 111.2585,-630.9019 115.4256,-625.2773"/>
</g>
<!-- \\ktc\\a2\\model\\ProductCollectionModel -->
<g id="node4" class="node">
<title>\\ktc\\a2\\model\\ProductCollectionModel</title>
<polygon fill="none" stroke="#000000" points="369.6955,-676 204.6955,-676 204.6955,-640 369.6955,-640 369.6955,-676"/>
<text text-anchor="middle" x="287.1955" y="-655.2" font-family="Courier,monospace" font-size="11.00" fill="#000000">ProductCollectionModel</text>
</g>
<!-- \\ktc\\a2\\model\\ProductCollectionModel&#45;&gt;\\ktc\\a2\\model\\Model -->
<g id="edge3" class="edge">
<title>\\ktc\\a2\\model\\ProductCollectionModel&#45;&gt;\\ktc\\a2\\model\\Model</title>
<path fill="none" stroke="#000000" d="M218.5831,-639.9437C185.4208,-631.2166 146.9181,-621.0841 119.2619,-613.806"/>
<polygon fill="none" stroke="#000000" points="119.7888,-610.3255 109.2273,-611.1652 118.0072,-617.095 119.7888,-610.3255"/>
</g>
<!-- \\ktc\\a2\\model\\ProductModel -->
<g id="node5" class="node">
<title>\\ktc\\a2\\model\\ProductModel</title>
<polygon fill="none" stroke="#000000" points="336.1955,-622 238.1955,-622 238.1955,-586 336.1955,-586 336.1955,-622"/>
<text text-anchor="middle" x="287.1955" y="-601.2" font-family="Courier,monospace" font-size="11.00" fill="#000000">ProductModel</text>
</g>
<!-- \\ktc\\a2\\model\\ProductModel&#45;&gt;\\ktc\\a2\\model\\Model -->
<g id="edge5" class="edge">
<title>\\ktc\\a2\\model\\ProductModel&#45;&gt;\\ktc\\a2\\model\\Model</title>
<path fill="none" stroke="#000000" d="M238.0461,-604C201.5637,-604 152.572,-604 119.2829,-604"/>
<polygon fill="none" stroke="#000000" points="119.0624,-600.5001 109.0623,-604 119.0623,-607.5001 119.0624,-600.5001"/>
</g>
<!-- \\ktc\\a2\\model\\UserCollectionModel -->
<g id="node6" class="node">
<title>\\ktc\\a2\\model\\UserCollectionModel</title>
<polygon fill="none" stroke="#000000" points="359.6955,-568 214.6955,-568 214.6955,-532 359.6955,-532 359.6955,-568"/>
<text text-anchor="middle" x="287.1955" y="-547.2" font-family="Courier,monospace" font-size="11.00" fill="#000000">UserCollectionModel</text>
</g>
<!-- \\ktc\\a2\\model\\UserCollectionModel&#45;&gt;\\ktc\\a2\\model\\Model -->
<g id="edge6" class="edge">
<title>\\ktc\\a2\\model\\UserCollectionModel&#45;&gt;\\ktc\\a2\\model\\Model</title>
<path fill="none" stroke="#000000" d="M218.5831,-568.0563C185.4208,-576.7834 146.9181,-586.9159 119.2619,-594.194"/>
<polygon fill="none" stroke="#000000" points="118.0072,-590.905 109.2273,-596.8348 119.7888,-597.6745 118.0072,-590.905"/>
</g>
<!-- \\ktc\\a2\\model\\UserModel -->
<g id="node7" class="node">
<title>\\ktc\\a2\\model\\UserModel</title>
<polygon fill="none" stroke="#000000" points="325.6955,-514 248.6955,-514 248.6955,-478 325.6955,-478 325.6955,-514"/>
<text text-anchor="middle" x="287.1955" y="-493.2" font-family="Courier,monospace" font-size="11.00" fill="#000000">UserModel</text>
</g>
<!-- \\ktc\\a2\\model\\UserModel&#45;&gt;\\ktc\\a2\\model\\Model -->
<g id="edge8" class="edge">
<title>\\ktc\\a2\\model\\UserModel&#45;&gt;\\ktc\\a2\\model\\Model</title>
<path fill="none" stroke="#000000" d="M248.5776,-506.2996C234.4466,-510.6712 218.5378,-516.3153 204.6955,-523 171.9423,-538.8171 137.6356,-562.1231 113.6534,-579.6798"/>
<polygon fill="none" stroke="#000000" points="111.2585,-577.0981 105.307,-585.8634 115.4256,-582.7227 111.2585,-577.0981"/>
</g>
<!-- \\ktc\\a2\\controller\\ProductController -->
<g id="node8" class="node">
<title>\\ktc\\a2\\controller\\ProductController</title>
<polygon fill="none" stroke="#000000" points="352.6955,-434 221.6955,-434 221.6955,-398 352.6955,-398 352.6955,-434"/>
<text text-anchor="middle" x="287.1955" y="-413.2" font-family="Courier,monospace" font-size="11.00" fill="#000000">ProductController</text>
</g>
<!-- \\ktc\\a2\\controller\\Controller -->
<g id="node10" class="node">
<title>\\ktc\\a2\\controller\\Controller</title>
<polygon fill="none" stroke="#000000" points="124,-353 40,-353 40,-317 124,-317 124,-353"/>
<text text-anchor="middle" x="82" y="-332.2" font-family="Courier,monospace" font-size="11.00" fill="#000000">Controller</text>
</g>
<!-- \\ktc\\a2\\controller\\ProductController&#45;&gt;\\ktc\\a2\\controller\\Controller -->
<g id="edge4" class="edge">
<title>\\ktc\\a2\\controller\\ProductController&#45;&gt;\\ktc\\a2\\controller\\Controller</title>
<path fill="none" stroke="#000000" d="M229.688,-397.9845C221.2586,-395.1112 212.7184,-392.0698 204.6955,-389 179.5901,-379.3939 152.163,-367.4638 129.6195,-357.2621"/>
<polygon fill="none" stroke="#000000" points="130.8293,-353.9672 120.278,-353.0076 127.9279,-360.3376 130.8293,-353.9672"/>
</g>
<!-- \\ktc\\a2\\controller\\SearchController -->
<g id="node9" class="node">
<title>\\ktc\\a2\\controller\\SearchController</title>
<polygon fill="none" stroke="#000000" points="349.6955,-380 224.6955,-380 224.6955,-344 349.6955,-344 349.6955,-380"/>
<text text-anchor="middle" x="287.1955" y="-359.2" font-family="Courier,monospace" font-size="11.00" fill="#000000">SearchController</text>
</g>
<!-- \\ktc\\a2\\controller\\SearchController&#45;&gt;\\ktc\\a2\\controller\\Controller -->
<g id="edge7" class="edge">
<title>\\ktc\\a2\\controller\\SearchController&#45;&gt;\\ktc\\a2\\controller\\Controller</title>
<path fill="none" stroke="#000000" d="M224.5151,-353.7524C195.6708,-349.957 161.8394,-345.5054 134.379,-341.8921"/>
<polygon fill="none" stroke="#000000" points="134.5614,-338.386 124.1902,-340.5515 133.6481,-345.3262 134.5614,-338.386"/>
</g>
<!-- \\ktc\\a2\\controller\\HomeController -->
<g id="node11" class="node">
<title>\\ktc\\a2\\controller\\HomeController</title>
<polygon fill="none" stroke="#000000" points="342.6955,-326 231.6955,-326 231.6955,-290 342.6955,-290 342.6955,-326"/>
<text text-anchor="middle" x="287.1955" y="-305.2" font-family="Courier,monospace" font-size="11.00" fill="#000000">HomeController</text>
</g>
<!-- \\ktc\\a2\\controller\\HomeController&#45;&gt;\\ktc\\a2\\controller\\Controller -->
<g id="edge9" class="edge">
<title>\\ktc\\a2\\controller\\HomeController&#45;&gt;\\ktc\\a2\\controller\\Controller</title>
<path fill="none" stroke="#000000" d="M231.6666,-315.3066C201.4075,-319.2881 164.1745,-324.1873 134.4151,-328.1031"/>
<polygon fill="none" stroke="#000000" points="133.6821,-324.6693 124.2242,-329.4441 134.5953,-331.6095 133.6821,-324.6693"/>
</g>
<!-- \\ktc\\a2\\controller\\UserController -->
<g id="node12" class="node">
<title>\\ktc\\a2\\controller\\UserController</title>
<polygon fill="none" stroke="#000000" points="342.6955,-272 231.6955,-272 231.6955,-236 342.6955,-236 342.6955,-272"/>
<text text-anchor="middle" x="287.1955" y="-251.2" font-family="Courier,monospace" font-size="11.00" fill="#000000">UserController</text>
</g>
<!-- \\ktc\\a2\\controller\\UserController&#45;&gt;\\ktc\\a2\\controller\\Controller -->
<g id="edge10" class="edge">
<title>\\ktc\\a2\\controller\\UserController&#45;&gt;\\ktc\\a2\\controller\\Controller</title>
<path fill="none" stroke="#000000" d="M231.4608,-271.4131C222.4598,-274.4621 213.2814,-277.7148 204.6955,-281 179.5901,-290.6061 152.163,-302.5362 129.6195,-312.7379"/>
<polygon fill="none" stroke="#000000" points="127.9279,-309.6624 120.278,-316.9924 130.8293,-316.0328 127.9279,-309.6624"/>
</g>
<!-- \\ktc\\a2\\view\\View -->
<g id="node13" class="node">
<title>\\ktc\\a2\\view\\View</title>
<polygon fill="none" stroke="#000000" points="314.1955,-112 260.1955,-112 260.1955,-76 314.1955,-76 314.1955,-112"/>
<text text-anchor="middle" x="287.1955" y="-91.2" font-family="Courier,monospace" font-size="11.00" fill="#000000">View</text>
</g>
</g>
</svg>
